<svg xmlns="http://www.w3.org/2000/svg" viewBox="0 0 100 100">
  <defs>
    <linearGradient id="g1" x1="0%" y1="0%" x2="100%" y2="100%">
      <stop offset="0%" style="stop-color:#f97316"/>
      <stop offset="100%" style="stop-color:#ea580c"/>
    </linearGradient>
  </defs>
  <rect width="100" height="100" rx="22" fill="url(#g1)"/>
  <!-- C shape -->
  <path d="M65 20 C65 20 35 18 28 50 C21 82 50 82 65 80" stroke="white" stroke-width="11" stroke-linecap="round" fill="none"/>
  <!-- Chat bubble tail -->
  <path d="M28 65 L20 78 L38 70" fill="white"/>
  <!-- Star sparkle big -->
  <path d="M52 42 L54 48 L60 50 L54 52 L52 58 L50 52 L44 50 L50 48 Z" fill="white"/>
  <!-- Star sparkle small -->
  <path d="M63 34 L64 37 L67 38 L64 39 L63 42 L62 39 L59 38 L62 37 Z" fill="white" opacity="0.85"/>
  <!-- Star sparkle tiny -->
  <path d="M71 28 L72 30 L74 31 L72 32 L71 34 L70 32 L68 31 L70 30 Z" fill="white" opacity="0.7"/>
</svg>
